<mxfile host="app.diagrams.net" modified="2023-12-19T16:16:38.025Z" agent="Mozilla/5.0 (Windows NT 10.0; Win64; x64) AppleWebKit/537.36 (KHTML, like Gecko) Chrome/120.0.0.0 Safari/537.36" etag="pfqV8D6JrVccNtJY9QUK" version="22.1.11" type="device">
  <diagram name="Страница — 1" id="N-qAw4Ii0so-HZ5WBmBv">
    <mxGraphModel dx="3420" dy="1373" grid="0" gridSize="10" guides="1" tooltips="1" connect="1" arrows="1" fold="1" page="1" pageScale="1" pageWidth="827" pageHeight="1169" background="none" math="0" shadow="0">
      <root>
        <mxCell id="0" />
        <mxCell id="1" parent="0" />
        <mxCell id="5nABSl6TricY1-DJC5i2-1" value="&lt;p style=&quot;margin:0px;margin-top:4px;text-align:center;&quot;&gt;&lt;b&gt;Product&lt;/b&gt;&lt;/p&gt;&lt;hr size=&quot;1&quot;&gt;&lt;p style=&quot;margin:0px;margin-left:4px;&quot;&gt;- id: int&lt;/p&gt;&lt;p style=&quot;margin:0px;margin-left:4px;&quot;&gt;- name: string&lt;/p&gt;&lt;p style=&quot;margin:0px;margin-left:4px;&quot;&gt;- type: Type&lt;/p&gt;&lt;p style=&quot;margin:0px;margin-left:4px;&quot;&gt;- category: Category&lt;/p&gt;&lt;p style=&quot;margin:0px;margin-left:4px;&quot;&gt;- model: Model&lt;br&gt;&lt;/p&gt;&lt;hr size=&quot;1&quot;&gt;&lt;p style=&quot;margin:0px;margin-left:4px;&quot;&gt;+ Product(string, Type, Category, Model)&lt;/p&gt;&lt;p style=&quot;margin:0px;margin-left:4px;&quot;&gt;+ get_product_name(): String&lt;/p&gt;&lt;p style=&quot;margin:0px;margin-left:4px;&quot;&gt;+ get_product_type(): String&lt;/p&gt;&lt;p style=&quot;margin:0px;margin-left:4px;&quot;&gt;+ get_product_category(): String&lt;/p&gt;&lt;p style=&quot;margin:0px;margin-left:4px;&quot;&gt;+ get_product_model(): String&lt;/p&gt;" style="verticalAlign=top;align=left;overflow=fill;fontSize=12;fontFamily=Helvetica;html=1;whiteSpace=wrap;" vertex="1" parent="1">
          <mxGeometry x="196.5" y="900" width="230" height="242" as="geometry" />
        </mxCell>
        <mxCell id="5nABSl6TricY1-DJC5i2-2" value="&lt;p style=&quot;margin:0px;margin-top:4px;text-align:center;&quot;&gt;&lt;b&gt;Client&lt;/b&gt;&lt;/p&gt;&lt;hr size=&quot;1&quot;&gt;&lt;p style=&quot;margin:0px;margin-left:4px;&quot;&gt;- id: int&lt;/p&gt;&lt;p style=&quot;margin:0px;margin-left:4px;&quot;&gt;- name: string&lt;/p&gt;&lt;p style=&quot;margin:0px;margin-left:4px;&quot;&gt;- mobile_number: string&lt;/p&gt;&lt;p style=&quot;margin:0px;margin-left:4px;&quot;&gt;- email: string&lt;/p&gt;&lt;p style=&quot;margin:0px;margin-left:4px;&quot;&gt;- adress: string&lt;/p&gt;&lt;p style=&quot;margin:0px;margin-left:4px;&quot;&gt;- status: varchar&lt;/p&gt;&lt;p style=&quot;margin:0px;margin-left:4px;&quot;&gt;- login: string&lt;/p&gt;&lt;p style=&quot;margin:0px;margin-left:4px;&quot;&gt;- password: string&lt;/p&gt;&lt;hr size=&quot;1&quot;&gt;&lt;p style=&quot;margin:0px;margin-left:4px;&quot;&gt;+ Client(string, string, string, string, varchar, string, string)&lt;/p&gt;&lt;p style=&quot;margin:0px;margin-left:4px;&quot;&gt;+ get_client_name() String&lt;/p&gt;&lt;p style=&quot;margin:0px;margin-left:4px;&quot;&gt;+ get_client_adress() String&lt;/p&gt;&lt;p style=&quot;margin:0px;margin-left:4px;&quot;&gt;+ get_client_mobile_number() String&lt;/p&gt;&lt;p style=&quot;margin:0px;margin-left:4px;&quot;&gt;+ get_client_email() String&lt;/p&gt;&amp;nbsp;+ get_client_status() varchar" style="verticalAlign=top;align=left;overflow=fill;fontSize=12;fontFamily=Helvetica;html=1;whiteSpace=wrap;" vertex="1" parent="1">
          <mxGeometry x="196.5" y="577" width="313" height="286" as="geometry" />
        </mxCell>
        <mxCell id="5nABSl6TricY1-DJC5i2-4" value="&lt;p style=&quot;margin:0px;margin-top:4px;text-align:center;&quot;&gt;&lt;b&gt;Provider&lt;/b&gt;&lt;/p&gt;&lt;hr size=&quot;1&quot;&gt;&lt;p style=&quot;margin:0px;margin-left:4px;&quot;&gt;- id: int&lt;/p&gt;&lt;p style=&quot;margin:0px;margin-left:4px;&quot;&gt;- name: string&lt;/p&gt;&lt;p style=&quot;margin:0px;margin-left:4px;&quot;&gt;- mobile_number: string&lt;/p&gt;&lt;p style=&quot;margin:0px;margin-left:4px;&quot;&gt;- email: string&lt;/p&gt;&lt;p style=&quot;margin:0px;margin-left:4px;&quot;&gt;- adress: string&lt;br&gt;&lt;/p&gt;&lt;p style=&quot;margin:0px;margin-left:4px;&quot;&gt;- warehouse: Warehouse&lt;/p&gt;&lt;hr size=&quot;1&quot;&gt;&lt;p style=&quot;margin:0px;margin-left:4px;&quot;&gt;+ Provider(string, string, string, string, Warehouse)&lt;/p&gt;&lt;p style=&quot;margin:0px;margin-left:4px;&quot;&gt;+ get_provider_name(): String&lt;/p&gt;&lt;p style=&quot;margin:0px;margin-left:4px;&quot;&gt;+ get_provider_adress(): String&lt;/p&gt;&lt;p style=&quot;margin:0px;margin-left:4px;&quot;&gt;+ get_provider_mobile_number(): String&lt;/p&gt;&lt;p style=&quot;margin:0px;margin-left:4px;&quot;&gt;+ get_provider_email(): String&lt;/p&gt;&lt;p style=&quot;margin:0px;margin-left:4px;&quot;&gt;+ get_warehouse(): Warehouse&lt;/p&gt;" style="verticalAlign=top;align=left;overflow=fill;fontSize=12;fontFamily=Helvetica;html=1;whiteSpace=wrap;" vertex="1" parent="1">
          <mxGeometry x="198.5" y="1196" width="230" height="268" as="geometry" />
        </mxCell>
        <mxCell id="5nABSl6TricY1-DJC5i2-5" value="&lt;p style=&quot;margin:0px;margin-top:4px;text-align:center;&quot;&gt;&lt;b&gt;Warehouse&lt;/b&gt;&lt;/p&gt;&lt;hr size=&quot;1&quot;&gt;&lt;p style=&quot;margin:0px;margin-left:4px;&quot;&gt;- id: int&lt;/p&gt;&lt;p style=&quot;margin:0px;margin-left:4px;&quot;&gt;- name: string&lt;/p&gt;&lt;p style=&quot;margin:0px;margin-left:4px;&quot;&gt;&lt;span style=&quot;background-color: initial;&quot;&gt;- adress: string&lt;/span&gt;&lt;/p&gt;&lt;hr size=&quot;1&quot;&gt;&lt;p style=&quot;margin:0px;margin-left:4px;&quot;&gt;+ Warehouse(string, string)&lt;/p&gt;&lt;p style=&quot;margin:0px;margin-left:4px;&quot;&gt;+ get_warehouse_name(): String&lt;/p&gt;&lt;p style=&quot;margin:0px;margin-left:4px;&quot;&gt;+ get_warehouse_adress(): String&lt;/p&gt;&lt;p style=&quot;margin:0px;margin-left:4px;&quot;&gt;&lt;br&gt;&lt;/p&gt;" style="verticalAlign=top;align=left;overflow=fill;fontSize=12;fontFamily=Helvetica;html=1;whiteSpace=wrap;" vertex="1" parent="1">
          <mxGeometry x="360" y="1526" width="204.72" height="142" as="geometry" />
        </mxCell>
        <mxCell id="5nABSl6TricY1-DJC5i2-7" value="Data_Base" style="shape=datastore;whiteSpace=wrap;html=1;" vertex="1" parent="1">
          <mxGeometry x="-145" y="1856.74" width="124" height="128" as="geometry" />
        </mxCell>
        <mxCell id="5nABSl6TricY1-DJC5i2-9" value="&lt;p style=&quot;margin:0px;margin-top:4px;text-align:center;&quot;&gt;&lt;b&gt;Order&lt;/b&gt;&lt;/p&gt;&lt;hr size=&quot;1&quot;&gt;&lt;p style=&quot;margin:0px;margin-left:4px;&quot;&gt;- id: int&lt;/p&gt;&lt;p style=&quot;margin:0px;margin-left:4px;&quot;&gt;- date: datetime&lt;/p&gt;&lt;p style=&quot;margin:0px;margin-left:4px;&quot;&gt;- client: Client&lt;/p&gt;&lt;p style=&quot;margin:0px;margin-left:4px;&quot;&gt;- product: Product&lt;/p&gt;&lt;p style=&quot;margin:0px;margin-left:4px;&quot;&gt;- provider: Provider&lt;/p&gt;&lt;p style=&quot;margin:0px;margin-left:4px;&quot;&gt;- warehouse: Warehouse&lt;/p&gt;&lt;hr size=&quot;1&quot;&gt;&lt;p style=&quot;margin:0px;margin-left:4px;&quot;&gt;+ Order(datetime, Client, Product, Provider, Warehouse)&lt;/p&gt;&lt;p style=&quot;margin:0px;margin-left:4px;&quot;&gt;+ get_order_date(): Datetime&lt;/p&gt;&lt;p style=&quot;margin:0px;margin-left:4px;&quot;&gt;+ get_order_client(): Client&lt;/p&gt;&lt;p style=&quot;margin:0px;margin-left:4px;&quot;&gt;+ get_order_product(): Product&lt;/p&gt;&lt;p style=&quot;margin:0px;margin-left:4px;&quot;&gt;+ get_order_provider(): Provider&lt;/p&gt;&lt;p style=&quot;margin:0px;margin-left:4px;&quot;&gt;+ get_order_warehouse(): Warehouse&lt;/p&gt;" style="verticalAlign=top;align=left;overflow=fill;fontSize=12;fontFamily=Helvetica;html=1;whiteSpace=wrap;" vertex="1" parent="1">
          <mxGeometry x="-180.5" y="881" width="230" height="280" as="geometry" />
        </mxCell>
        <mxCell id="5nABSl6TricY1-DJC5i2-10" value="&lt;p style=&quot;margin:0px;margin-top:4px;text-align:center;&quot;&gt;&lt;b&gt;Type&lt;/b&gt;&lt;/p&gt;&lt;hr size=&quot;1&quot;&gt;&lt;p style=&quot;margin:0px;margin-left:4px;&quot;&gt;- id: int&lt;/p&gt;&lt;p style=&quot;margin:0px;margin-left:4px;&quot;&gt;- name: string&lt;/p&gt;&lt;hr size=&quot;1&quot;&gt;&lt;p style=&quot;margin:0px;margin-left:4px;&quot;&gt;+ Type(string)&lt;/p&gt;&lt;p style=&quot;margin:0px;margin-left:4px;&quot;&gt;+ get_type_name(): String&lt;/p&gt;" style="verticalAlign=top;align=left;overflow=fill;fontSize=12;fontFamily=Helvetica;html=1;whiteSpace=wrap;" vertex="1" parent="1">
          <mxGeometry x="608.5" y="722" width="204.72" height="111" as="geometry" />
        </mxCell>
        <mxCell id="5nABSl6TricY1-DJC5i2-11" value="&lt;p style=&quot;margin:0px;margin-top:4px;text-align:center;&quot;&gt;&lt;b&gt;Category&lt;/b&gt;&lt;/p&gt;&lt;hr size=&quot;1&quot;&gt;&lt;p style=&quot;margin:0px;margin-left:4px;&quot;&gt;- id: int&lt;/p&gt;&lt;p style=&quot;margin:0px;margin-left:4px;&quot;&gt;- name: string&lt;/p&gt;&lt;hr size=&quot;1&quot;&gt;&lt;p style=&quot;margin:0px;margin-left:4px;&quot;&gt;+ Category(string)&lt;/p&gt;&lt;p style=&quot;margin:0px;margin-left:4px;&quot;&gt;+ get_category_name(): String&lt;/p&gt;" style="verticalAlign=top;align=left;overflow=fill;fontSize=12;fontFamily=Helvetica;html=1;whiteSpace=wrap;" vertex="1" parent="1">
          <mxGeometry x="606.14" y="878" width="204.72" height="112" as="geometry" />
        </mxCell>
        <mxCell id="5nABSl6TricY1-DJC5i2-12" value="&lt;p style=&quot;margin:0px;margin-top:4px;text-align:center;&quot;&gt;&lt;b&gt;Model&lt;/b&gt;&lt;/p&gt;&lt;hr size=&quot;1&quot;&gt;&lt;p style=&quot;margin:0px;margin-left:4px;&quot;&gt;- id: int&lt;/p&gt;&lt;p style=&quot;margin:0px;margin-left:4px;&quot;&gt;- name: string&lt;/p&gt;&lt;p style=&quot;margin:0px;margin-left:4px;&quot;&gt;- description: string&lt;/p&gt;&lt;p style=&quot;margin:0px;margin-left:4px;&quot;&gt;- quantity: int&lt;/p&gt;&lt;p style=&quot;margin:0px;margin-left:4px;&quot;&gt;- price: float&lt;/p&gt;&lt;hr size=&quot;1&quot;&gt;&lt;p style=&quot;margin:0px;margin-left:4px;&quot;&gt;+ Model(string, string, int, float)&lt;/p&gt;&lt;p style=&quot;margin:0px;margin-left:4px;&quot;&gt;+ get_model_name(): String&lt;/p&gt;&amp;nbsp;+ get_model_description(): String&amp;nbsp;&lt;br&gt;&amp;nbsp;+ get_model_quantity(): Int&lt;br&gt;&amp;nbsp;+ get_model_price(): Float&lt;br&gt;+ set_model_price(): Float" style="verticalAlign=top;align=left;overflow=fill;fontSize=12;fontFamily=Helvetica;html=1;whiteSpace=wrap;" vertex="1" parent="1">
          <mxGeometry x="604" y="1071" width="204.72" height="202" as="geometry" />
        </mxCell>
        <mxCell id="5nABSl6TricY1-DJC5i2-13" value="1" style="endArrow=open;html=1;endSize=12;startArrow=diamondThin;startSize=14;startFill=0;edgeStyle=orthogonalEdgeStyle;align=left;verticalAlign=bottom;rounded=0;entryX=0;entryY=0.5;entryDx=0;entryDy=0;" edge="1" parent="1" source="5nABSl6TricY1-DJC5i2-1" target="5nABSl6TricY1-DJC5i2-10">
          <mxGeometry x="-1" y="3" relative="1" as="geometry">
            <mxPoint x="244.5" y="872" as="sourcePoint" />
            <mxPoint x="404.5" y="872" as="targetPoint" />
            <Array as="points">
              <mxPoint x="548.5" y="948" />
              <mxPoint x="548.5" y="778" />
            </Array>
          </mxGeometry>
        </mxCell>
        <mxCell id="5nABSl6TricY1-DJC5i2-15" value="1" style="endArrow=open;html=1;endSize=12;startArrow=diamondThin;startSize=14;startFill=0;edgeStyle=orthogonalEdgeStyle;align=left;verticalAlign=bottom;rounded=0;entryX=0;entryY=0.5;entryDx=0;entryDy=0;exitX=1;exitY=0.5;exitDx=0;exitDy=0;" edge="1" parent="1" source="5nABSl6TricY1-DJC5i2-1" target="5nABSl6TricY1-DJC5i2-11">
          <mxGeometry x="-1" y="3" relative="1" as="geometry">
            <mxPoint x="244.5" y="872" as="sourcePoint" />
            <mxPoint x="404.5" y="872" as="targetPoint" />
            <Array as="points">
              <mxPoint x="566.5" y="1021" />
              <mxPoint x="566.5" y="934" />
            </Array>
          </mxGeometry>
        </mxCell>
        <mxCell id="5nABSl6TricY1-DJC5i2-16" value="1" style="endArrow=open;html=1;endSize=12;startArrow=diamondThin;startSize=14;startFill=0;edgeStyle=orthogonalEdgeStyle;align=left;verticalAlign=bottom;rounded=0;entryX=0;entryY=0.5;entryDx=0;entryDy=0;exitX=1.009;exitY=0.702;exitDx=0;exitDy=0;exitPerimeter=0;" edge="1" parent="1" source="5nABSl6TricY1-DJC5i2-1" target="5nABSl6TricY1-DJC5i2-12">
          <mxGeometry x="-1" y="3" relative="1" as="geometry">
            <mxPoint x="449.5" y="1077" as="sourcePoint" />
            <mxPoint x="404.5" y="1011" as="targetPoint" />
            <Array as="points">
              <mxPoint x="580" y="1070" />
            </Array>
          </mxGeometry>
        </mxCell>
        <mxCell id="5nABSl6TricY1-DJC5i2-17" value="1" style="endArrow=open;html=1;endSize=12;startArrow=diamondThin;startSize=14;startFill=0;edgeStyle=orthogonalEdgeStyle;align=left;verticalAlign=bottom;rounded=0;entryX=0;entryY=0.5;entryDx=0;entryDy=0;" edge="1" parent="1" source="5nABSl6TricY1-DJC5i2-4" target="5nABSl6TricY1-DJC5i2-5">
          <mxGeometry x="-1" y="3" relative="1" as="geometry">
            <mxPoint x="244.5" y="1289" as="sourcePoint" />
            <mxPoint x="404.5" y="1289" as="targetPoint" />
          </mxGeometry>
        </mxCell>
        <mxCell id="5nABSl6TricY1-DJC5i2-19" value="1" style="endArrow=open;html=1;endSize=12;startArrow=diamondThin;startSize=14;startFill=1;edgeStyle=orthogonalEdgeStyle;align=left;verticalAlign=bottom;rounded=0;entryX=0;entryY=0.5;entryDx=0;entryDy=0;exitX=0.994;exitY=0.123;exitDx=0;exitDy=0;exitPerimeter=0;" edge="1" parent="1" source="5nABSl6TricY1-DJC5i2-9" target="5nABSl6TricY1-DJC5i2-2">
          <mxGeometry x="-1" y="3" relative="1" as="geometry">
            <mxPoint x="-17.5" y="789" as="sourcePoint" />
            <mxPoint x="142.5" y="789" as="targetPoint" />
          </mxGeometry>
        </mxCell>
        <mxCell id="5nABSl6TricY1-DJC5i2-20" value="1" style="endArrow=open;html=1;endSize=12;startArrow=diamondThin;startSize=14;startFill=1;edgeStyle=orthogonalEdgeStyle;align=left;verticalAlign=bottom;rounded=0;entryX=0;entryY=0.5;entryDx=0;entryDy=0;" edge="1" parent="1" source="5nABSl6TricY1-DJC5i2-9" target="5nABSl6TricY1-DJC5i2-1">
          <mxGeometry x="-1" y="3" relative="1" as="geometry">
            <mxPoint x="183.5" y="1014" as="sourcePoint" />
            <mxPoint x="343.5" y="1014" as="targetPoint" />
          </mxGeometry>
        </mxCell>
        <mxCell id="5nABSl6TricY1-DJC5i2-21" value="1" style="endArrow=open;html=1;endSize=12;startArrow=diamondThin;startSize=14;startFill=1;edgeStyle=orthogonalEdgeStyle;align=left;verticalAlign=bottom;rounded=0;entryX=0;entryY=0.5;entryDx=0;entryDy=0;exitX=0.998;exitY=0.709;exitDx=0;exitDy=0;exitPerimeter=0;" edge="1" parent="1" source="5nABSl6TricY1-DJC5i2-9" target="5nABSl6TricY1-DJC5i2-4">
          <mxGeometry x="-1" y="3" relative="1" as="geometry">
            <mxPoint x="90.5" y="1110" as="sourcePoint" />
            <mxPoint x="343.5" y="1014" as="targetPoint" />
          </mxGeometry>
        </mxCell>
        <mxCell id="5nABSl6TricY1-DJC5i2-22" value="&lt;p style=&quot;margin:0px;margin-top:4px;text-align:center;&quot;&gt;&lt;b&gt;Transaction&lt;/b&gt;&lt;/p&gt;&lt;hr size=&quot;1&quot;&gt;&lt;p style=&quot;margin:0px;margin-left:4px;&quot;&gt;- id: int&lt;/p&gt;&lt;p style=&quot;margin:0px;margin-left:4px;&quot;&gt;- amount: float&lt;/p&gt;&lt;p style=&quot;margin:0px;margin-left:4px;&quot;&gt;- payment_type: varchar&lt;/p&gt;&lt;p style=&quot;margin:0px;margin-left:4px;&quot;&gt;- status: boolean&lt;/p&gt;&lt;p style=&quot;margin:0px;margin-left:4px;&quot;&gt;- date_time: datetime&lt;/p&gt;&lt;p style=&quot;margin:0px;margin-left:4px;&quot;&gt;- client: Client&lt;/p&gt;&lt;p style=&quot;margin:0px;margin-left:4px;&quot;&gt;- order: Order&lt;/p&gt;&lt;hr size=&quot;1&quot;&gt;&lt;p style=&quot;margin:0px;margin-left:4px;&quot;&gt;+ Transaction(float, varchar, boolean, datetime, Client, Order)&lt;/p&gt;&lt;p style=&quot;margin:0px;margin-left:4px;&quot;&gt;+ get_transaction_amount(): float&lt;/p&gt;&lt;p style=&quot;margin:0px;margin-left:4px;&quot;&gt;+ set_transaction_amount(float): void&lt;/p&gt;&lt;p style=&quot;margin:0px;margin-left:4px;&quot;&gt;+ get_tranasction_payment_type(): varchar&lt;/p&gt;&lt;p style=&quot;margin:0px;margin-left:4px;&quot;&gt;+ get_tranasction_status(): boolean&lt;/p&gt;&lt;p style=&quot;margin:0px;margin-left:4px;&quot;&gt;+ get_tranasction_date(): datetime&lt;/p&gt;&lt;p style=&quot;margin:0px;margin-left:4px;&quot;&gt;+ get_tranasction_client(): Client&lt;/p&gt;&lt;p style=&quot;margin:0px;margin-left:4px;&quot;&gt;+ get_tranasction_order(): Order&lt;/p&gt;" style="verticalAlign=top;align=left;overflow=fill;fontSize=12;fontFamily=Helvetica;html=1;whiteSpace=wrap;" vertex="1" parent="1">
          <mxGeometry x="-187" y="493" width="243" height="295" as="geometry" />
        </mxCell>
        <mxCell id="5nABSl6TricY1-DJC5i2-23" value="&lt;p style=&quot;margin:0px;margin-top:4px;text-align:center;&quot;&gt;&lt;b&gt;Controller&lt;/b&gt;&lt;/p&gt;&lt;hr size=&quot;1&quot;&gt;&lt;p style=&quot;margin:0px;margin-left:4px;&quot;&gt;- adapter: iAdapter&lt;/p&gt;&lt;p style=&quot;margin:0px;margin-left:4px;&quot;&gt;- repository: iRepository&lt;/p&gt;&lt;p style=&quot;margin:0px;margin-left:4px;&quot;&gt;- order: Order&lt;/p&gt;&lt;p style=&quot;margin:0px;margin-left:4px;&quot;&gt;- transaction: Transaction&lt;/p&gt;&lt;hr size=&quot;1&quot;&gt;&lt;p style=&quot;margin:0px;margin-left:4px;&quot;&gt;+ verify_transaction(): boolean&lt;/p&gt;&lt;p style=&quot;margin:0px;margin-left:4px;&quot;&gt;+ charge_transaction_status&lt;/p&gt;" style="verticalAlign=top;align=left;overflow=fill;fontSize=12;fontFamily=Helvetica;html=1;whiteSpace=wrap;" vertex="1" parent="1">
          <mxGeometry x="-449" y="687" width="160" height="209" as="geometry" />
        </mxCell>
        <mxCell id="5nABSl6TricY1-DJC5i2-24" value="1" style="endArrow=open;html=1;endSize=12;startArrow=diamondThin;startSize=14;startFill=1;edgeStyle=orthogonalEdgeStyle;align=left;verticalAlign=bottom;rounded=0;" edge="1" parent="1" source="5nABSl6TricY1-DJC5i2-22" target="5nABSl6TricY1-DJC5i2-2">
          <mxGeometry x="-1" y="3" relative="1" as="geometry">
            <mxPoint x="83.5" y="664.46" as="sourcePoint" />
            <mxPoint x="171.5" y="643" as="targetPoint" />
            <Array as="points">
              <mxPoint x="123.5" y="664" />
              <mxPoint x="123.5" y="720" />
            </Array>
          </mxGeometry>
        </mxCell>
        <mxCell id="5nABSl6TricY1-DJC5i2-26" value="1" style="endArrow=open;html=1;endSize=12;startArrow=diamondThin;startSize=14;startFill=1;edgeStyle=orthogonalEdgeStyle;align=left;verticalAlign=bottom;rounded=0;" edge="1" parent="1" source="5nABSl6TricY1-DJC5i2-22" target="5nABSl6TricY1-DJC5i2-9">
          <mxGeometry x="-1" y="3" relative="1" as="geometry">
            <mxPoint x="-244.5" y="852" as="sourcePoint" />
            <mxPoint x="-84.5" y="852" as="targetPoint" />
          </mxGeometry>
        </mxCell>
        <mxCell id="5nABSl6TricY1-DJC5i2-27" value="&lt;p style=&quot;margin:0px;margin-top:4px;text-align:center;&quot;&gt;&lt;b&gt;Adapter&lt;/b&gt;&lt;/p&gt;&lt;hr size=&quot;1&quot;&gt;&lt;p style=&quot;margin:0px;margin-left:4px;&quot;&gt;&lt;span style=&quot;background-color: initial;&quot;&gt;+ add_to_cart()&lt;/span&gt;&lt;br&gt;&lt;/p&gt;&lt;p style=&quot;margin:0px;margin-left:4px;&quot;&gt;+ place_order()&lt;/p&gt;&lt;p style=&quot;margin:0px;margin-left:4px;&quot;&gt;+ download_order()&lt;/p&gt;" style="verticalAlign=top;align=left;overflow=fill;fontSize=12;fontFamily=Helvetica;html=1;whiteSpace=wrap;" vertex="1" parent="1">
          <mxGeometry x="-736.74" y="172" width="157.48" height="157.48" as="geometry" />
        </mxCell>
        <mxCell id="5nABSl6TricY1-DJC5i2-28" value="&lt;p style=&quot;margin:0px;margin-top:4px;text-align:center;&quot;&gt;&lt;b&gt;&lt;i&gt;&amp;lt;&amp;lt;Interface&amp;gt;&amp;gt; iAdapter&lt;/i&gt;&lt;/b&gt;&lt;/p&gt;&lt;hr size=&quot;1&quot;&gt;&lt;p style=&quot;border-color: var(--border-color); margin: 0px 0px 0px 4px;&quot;&gt;&lt;span style=&quot;background-color: initial;&quot;&gt;+ add_to_cart()&lt;/span&gt;&lt;br&gt;&lt;/p&gt;&lt;p style=&quot;border-color: var(--border-color); margin: 0px 0px 0px 4px;&quot;&gt;+ place_order()&lt;/p&gt;&lt;p style=&quot;border-color: var(--border-color); margin: 0px 0px 0px 4px;&quot;&gt;+ download_order()&lt;/p&gt;" style="verticalAlign=top;align=left;overflow=fill;fontSize=12;fontFamily=Helvetica;html=1;whiteSpace=wrap;" vertex="1" parent="1">
          <mxGeometry x="-736.74" y="493" width="157.48" height="157.48" as="geometry" />
        </mxCell>
        <mxCell id="5nABSl6TricY1-DJC5i2-31" value="&lt;p style=&quot;margin:0px;margin-top:4px;text-align:center;&quot;&gt;&lt;b&gt;Repository&lt;/b&gt;&lt;/p&gt;&lt;hr size=&quot;1&quot;&gt;&lt;p style=&quot;border-color: var(--border-color); margin: 0px 0px 0px 4px;&quot;&gt;+ find_all_orders(): List&amp;lt;Order&amp;gt;&lt;/p&gt;&lt;p style=&quot;border-color: var(--border-color); margin: 0px 0px 0px 4px;&quot;&gt;+ find_by_client(client_id): List&amp;lt;Order&amp;gt;&lt;/p&gt;&lt;p style=&quot;border-color: var(--border-color); margin: 0px 0px 0px 4px;&quot;&gt;+ find_by_provider(provider_id): List&amp;lt;Order&amp;gt;&lt;/p&gt;&lt;p style=&quot;border-color: var(--border-color); margin: 0px 0px 0px 4px;&quot;&gt;+ find_by_product(product_id): List&amp;lt;Order&amp;gt;&lt;/p&gt;" style="verticalAlign=top;align=left;overflow=fill;fontSize=12;fontFamily=Helvetica;html=1;whiteSpace=wrap;" vertex="1" parent="1">
          <mxGeometry x="-809" y="1842" width="302" height="157.48" as="geometry" />
        </mxCell>
        <mxCell id="5nABSl6TricY1-DJC5i2-32" value="&lt;p style=&quot;margin:0px;margin-top:4px;text-align:center;&quot;&gt;&lt;i style=&quot;border-color: var(--border-color); font-weight: 700;&quot;&gt;&amp;lt;&amp;lt;Interface&amp;gt;&amp;gt; iRepository&lt;/i&gt;&lt;/p&gt;&lt;hr size=&quot;1&quot;&gt;&lt;p style=&quot;border-color: var(--border-color); margin: 0px 0px 0px 4px;&quot;&gt;+ find_all_orders(): List&amp;lt;Order&amp;gt;&lt;/p&gt;&lt;p style=&quot;border-color: var(--border-color); margin: 0px 0px 0px 4px;&quot;&gt;+ find_by_client(client_id): List&amp;lt;Order&amp;gt;&lt;/p&gt;&lt;p style=&quot;border-color: var(--border-color); margin: 0px 0px 0px 4px;&quot;&gt;+ find_by_provider(provider_id): List&amp;lt;Order&amp;gt;&lt;/p&gt;&lt;p style=&quot;border-color: var(--border-color); margin: 0px 0px 0px 4px;&quot;&gt;+ find_by_product(product_id): List&amp;lt;Order&amp;gt;&lt;/p&gt;" style="verticalAlign=top;align=left;overflow=fill;fontSize=12;fontFamily=Helvetica;html=1;whiteSpace=wrap;" vertex="1" parent="1">
          <mxGeometry x="-809" y="1003.52" width="302" height="157.48" as="geometry" />
        </mxCell>
        <mxCell id="5nABSl6TricY1-DJC5i2-33" value="" style="endArrow=block;dashed=1;endFill=0;endSize=12;html=1;rounded=0;entryX=0.5;entryY=0;entryDx=0;entryDy=0;exitX=0.5;exitY=1;exitDx=0;exitDy=0;" edge="1" parent="1" source="5nABSl6TricY1-DJC5i2-27" target="5nABSl6TricY1-DJC5i2-28">
          <mxGeometry width="160" relative="1" as="geometry">
            <mxPoint x="-584" y="368" as="sourcePoint" />
            <mxPoint x="-424" y="368" as="targetPoint" />
          </mxGeometry>
        </mxCell>
        <mxCell id="5nABSl6TricY1-DJC5i2-34" value="" style="endArrow=block;dashed=1;endFill=0;endSize=12;html=1;rounded=0;exitX=0.5;exitY=0;exitDx=0;exitDy=0;entryX=0.5;entryY=1;entryDx=0;entryDy=0;" edge="1" parent="1" source="5nABSl6TricY1-DJC5i2-31" target="5nABSl6TricY1-DJC5i2-32">
          <mxGeometry width="160" relative="1" as="geometry">
            <mxPoint x="-679" y="1822" as="sourcePoint" />
            <mxPoint x="-648" y="1611" as="targetPoint" />
          </mxGeometry>
        </mxCell>
        <mxCell id="5nABSl6TricY1-DJC5i2-35" value="" style="endArrow=diamondThin;endFill=0;endSize=24;html=1;rounded=0;exitX=1.004;exitY=0.468;exitDx=0;exitDy=0;exitPerimeter=0;entryX=0;entryY=0.25;entryDx=0;entryDy=0;edgeStyle=orthogonalEdgeStyle;" edge="1" parent="1" source="5nABSl6TricY1-DJC5i2-28" target="5nABSl6TricY1-DJC5i2-23">
          <mxGeometry width="160" relative="1" as="geometry">
            <mxPoint x="-584" y="803" as="sourcePoint" />
            <mxPoint x="-424" y="803" as="targetPoint" />
          </mxGeometry>
        </mxCell>
        <mxCell id="5nABSl6TricY1-DJC5i2-36" value="" style="endArrow=diamondThin;endFill=0;endSize=24;html=1;rounded=0;entryX=0;entryY=0.5;entryDx=0;entryDy=0;exitX=1;exitY=0.5;exitDx=0;exitDy=0;edgeStyle=orthogonalEdgeStyle;" edge="1" parent="1" source="5nABSl6TricY1-DJC5i2-32" target="5nABSl6TricY1-DJC5i2-23">
          <mxGeometry width="160" relative="1" as="geometry">
            <mxPoint x="-584" y="803" as="sourcePoint" />
            <mxPoint x="-424" y="803" as="targetPoint" />
          </mxGeometry>
        </mxCell>
        <mxCell id="5nABSl6TricY1-DJC5i2-37" value="1" style="endArrow=open;html=1;endSize=12;startArrow=diamondThin;startSize=14;startFill=1;edgeStyle=orthogonalEdgeStyle;align=left;verticalAlign=bottom;rounded=0;entryX=0;entryY=0.5;entryDx=0;entryDy=0;exitX=0.999;exitY=0.386;exitDx=0;exitDy=0;exitPerimeter=0;" edge="1" parent="1" source="5nABSl6TricY1-DJC5i2-23" target="5nABSl6TricY1-DJC5i2-22">
          <mxGeometry x="-1" y="3" relative="1" as="geometry">
            <mxPoint x="-271" y="821" as="sourcePoint" />
            <mxPoint x="-227" y="586" as="targetPoint" />
          </mxGeometry>
        </mxCell>
        <mxCell id="5nABSl6TricY1-DJC5i2-38" value="1" style="endArrow=open;html=1;endSize=12;startArrow=diamondThin;startSize=14;startFill=1;edgeStyle=orthogonalEdgeStyle;align=left;verticalAlign=bottom;rounded=0;entryX=0;entryY=0.5;entryDx=0;entryDy=0;exitX=1;exitY=0.569;exitDx=0;exitDy=0;exitPerimeter=0;" edge="1" parent="1" source="5nABSl6TricY1-DJC5i2-23" target="5nABSl6TricY1-DJC5i2-9">
          <mxGeometry x="-1" y="3" relative="1" as="geometry">
            <mxPoint x="-584" y="803" as="sourcePoint" />
            <mxPoint x="-424" y="803" as="targetPoint" />
          </mxGeometry>
        </mxCell>
        <mxCell id="5nABSl6TricY1-DJC5i2-39" value="Use" style="endArrow=open;endSize=12;dashed=1;html=1;rounded=0;entryX=0;entryY=0.5;entryDx=0;entryDy=0;exitX=1;exitY=0.5;exitDx=0;exitDy=0;" edge="1" parent="1" source="5nABSl6TricY1-DJC5i2-31" target="5nABSl6TricY1-DJC5i2-7">
          <mxGeometry width="160" relative="1" as="geometry">
            <mxPoint x="-472" y="1529" as="sourcePoint" />
            <mxPoint x="-312" y="1529" as="targetPoint" />
          </mxGeometry>
        </mxCell>
        <mxCell id="5nABSl6TricY1-DJC5i2-40" value="" style="shape=folder;fontStyle=1;spacingTop=10;tabWidth=40;tabHeight=14;tabPosition=left;html=1;whiteSpace=wrap;fillColor=none;strokeColor=#007FFF;strokeWidth=7;" vertex="1" parent="1">
          <mxGeometry x="-818" y="1740" width="1640" height="595" as="geometry" />
        </mxCell>
        <mxCell id="5nABSl6TricY1-DJC5i2-41" value="" style="shape=folder;fontStyle=1;spacingTop=10;tabWidth=40;tabHeight=14;tabPosition=left;html=1;whiteSpace=wrap;fillColor=none;strokeColor=#FF9933;strokeWidth=7;" vertex="1" parent="1">
          <mxGeometry x="-820" y="444" width="1640" height="1243" as="geometry" />
        </mxCell>
        <mxCell id="5nABSl6TricY1-DJC5i2-42" value="" style="shape=folder;fontStyle=1;spacingTop=10;tabWidth=40;tabHeight=14;tabPosition=left;html=1;whiteSpace=wrap;fillColor=none;strokeColor=#33FF33;strokeWidth=7;" vertex="1" parent="1">
          <mxGeometry x="-824" y="14" width="1640" height="414" as="geometry" />
        </mxCell>
      </root>
    </mxGraphModel>
  </diagram>
</mxfile>
